<!-- Generated by IcoMoon.io -->
<svg version="1.1" xmlns="http://www.w3.org/2000/svg" width="32" height="32" viewBox="0 0 32 32">
<title>invoice</title>
<path fill="#2d527c" d="M9.124 17.979v-2.901c1.158 0.203 1.332 0.845 1.358 1.222 0.007 0.097 0.087 0.171 0.183 0.171h1.264c0.106 0 0.19-0.090 0.184-0.196-0.082-1.591-1.172-2.615-2.99-2.845v-0.976c0-0.102-0.082-0.184-0.184-0.184h-1.264c-0.102 0-0.184 0.082-0.184 0.184v0.976c-1.891 0.239-2.995 1.338-2.995 3.041s1.104 2.802 2.995 3.041v2.901c-1.158-0.203-1.332-0.845-1.358-1.222-0.007-0.097-0.087-0.171-0.183-0.171h-1.264c-0.106 0-0.19 0.090-0.184 0.196 0.082 1.591 1.172 2.615 2.99 2.845v0.976c0 0.102 0.082 0.184 0.184 0.184h1.264c0.102 0 0.184-0.082 0.184-0.184v-0.976c1.891-0.239 2.995-1.338 2.995-3.041s-1.104-2.801-2.995-3.041zM7.492 17.866c-1.362-0.239-1.363-1.085-1.363-1.394s0-1.155 1.363-1.394v2.788zM9.124 22.414v-2.788c1.362 0.239 1.363 1.086 1.363 1.394s-0 1.155-1.363 1.394z"></path>
<path fill="#2d527c" d="M25.384 31.938h-24.395c-0.546 0-0.989-0.443-0.989-0.989v-20.919c0-0.546 0.443-0.989 0.989-0.989s0.989 0.443 0.989 0.989v19.93h23.406c0.546 0 0.989 0.443 0.989 0.989s-0.443 0.989-0.989 0.989z"></path>
<path fill="#cee8fa" d="M27.337 3.353l-3.118 5.314 3.239 1.902 3.118-5.314-3.239-1.902z"></path>
<path fill="#cee8fa" d="M8.602 7.9h16.071l2.666-4.544 2.182 1.281c-0.327-2.059-2.121-3.646-4.267-3.646h-20.107c2.376 0 4.321 1.945 4.321 4.322 0 0.968-0.323 1.865-0.865 2.587z"></path>
<path fill="#2d527c" d="M31.534 5.008c-0.066-0.254-0.23-0.471-0.457-0.604l-0.682-0.4c-0.594-2.313-2.724-4.003-5.144-4.003h-19.706c0 0-0.118-0.002-0.177-0.002-2.964-0-5.37 2.398-5.37 5.362 0 0.546 0.443 0.989 0.989 0.989s0.989-0.443 0.989-0.989c0-1.777 1.371-3.239 3.11-3.385 0.019 0.001 0.038 0.003 0.057 0.003 1.837 0 3.332 1.495 3.332 3.333 0 0.723-0.231 1.412-0.667 1.993-0.225 0.3-0.262 0.701-0.094 1.036s0.51 0.547 0.885 0.547h14.344l-7.593 12.94c-0.137 0.233-0.172 0.512-0.098 0.772l0.712 2.497c0.124 0.433 0.518 0.718 0.95 0.718 0.075 0 0.151-0.009 0.227-0.027l2.527-0.595c0.263-0.062 0.489-0.229 0.626-0.462l4.098-6.985v8.456c0 0.546 0.443 0.989 0.989 0.989s0.989-0.443 0.989-0.989v-11.951c0-0.11-0.019-0.215-0.051-0.313-0.057-0.259-0.217-0.494-0.464-0.639-0.471-0.276-1.077-0.119-1.354 0.352l-5.699 9.713-1.196 0.282-0.337-1.182 7.3-12.441 2.386 1.401c0.153 0.090 0.326 0.136 0.501 0.136 0.083 0 0.167-0.010 0.249-0.032 0.254-0.066 0.471-0.23 0.604-0.457l3.118-5.314c0.133-0.226 0.171-0.496 0.105-0.75zM9.277 1.98h15.976c0.609 0 1.189 0.171 1.69 0.469-0.004 0.002-0.007 0.004-0.010 0.006-0.041 0.019-0.081 0.040-0.119 0.064-0.006 0.004-0.012 0.008-0.018 0.012-0.037 0.024-0.072 0.051-0.106 0.080-0.003 0.002-0.006 0.004-0.008 0.007-0.034 0.031-0.066 0.064-0.096 0.1-0.006 0.007-0.012 0.014-0.018 0.022-0.029 0.036-0.057 0.074-0.081 0.116l-2.38 4.056h-13.895c0.162-0.512 0.245-1.049 0.245-1.598 0-1.261-0.442-2.421-1.178-3.333zM27.106 9.218l-1.533-0.9 2.117-3.608 1.533 0.9-2.117 3.608z"></path>
</svg>
