<!-- Generated by IcoMoon.io -->
<svg version="1.1" xmlns="http://www.w3.org/2000/svg" width="32" height="32" viewBox="0 0 32 32">
<title>notes</title>
<path fill="#cee8fa" d="M26.651 20.396l4.426-4.428-4.426-4.428v8.856z"></path>
<path fill="#cee8fa" d="M20.39 5.28l-4.427-4.428-4.426 4.428h8.853z"></path>
<path fill="#cee8fa" d="M11.537 26.658l4.426 4.428 4.427-4.428h-8.853z"></path>
<path fill="#cee8fa" d="M5.279 11.54l-4.427 4.428 4.427 4.428v-8.856z"></path>
<path fill="#2d527c" d="M21.239 26.586c-0-0.004-0-0.009-0.001-0.013-0.004-0.038-0.010-0.075-0.019-0.111-0.002-0.008-0.004-0.015-0.006-0.023-0.010-0.036-0.021-0.072-0.035-0.106-0-0.001-0.001-0.002-0.001-0.003s-0-0.001-0-0.001c-0.003-0.008-0.007-0.015-0.010-0.022-0.007-0.016-0.014-0.031-0.022-0.046-0.004-0.008-0.009-0.016-0.013-0.024-0.008-0.015-0.017-0.030-0.027-0.044-0.004-0.006-0.008-0.013-0.013-0.019-0.028-0.041-0.060-0.080-0.095-0.115-0.004-0.004-0.009-0.009-0.013-0.013-0.014-0.013-0.027-0.026-0.042-0.038-0.006-0.005-0.011-0.009-0.017-0.014-0.016-0.013-0.033-0.025-0.050-0.037-0.003-0.002-0.007-0.005-0.010-0.007-0.020-0.013-0.040-0.025-0.061-0.037-0.008-0.004-0.016-0.008-0.024-0.013-0.014-0.007-0.028-0.014-0.042-0.020-0.009-0.004-0.018-0.008-0.028-0.012-0.016-0.007-0.032-0.012-0.049-0.018-0.007-0.002-0.014-0.005-0.021-0.007-0.022-0.007-0.045-0.013-0.068-0.018-0.009-0.002-0.017-0.003-0.026-0.005-0.017-0.003-0.035-0.006-0.053-0.008-0.008-0.001-0.016-0.002-0.025-0.003-0.026-0.002-0.051-0.004-0.077-0.004h-14.262v-14.266c0-0.026-0.002-0.052-0.004-0.078-0.001-0.008-0.002-0.016-0.003-0.024-0.002-0.018-0.005-0.036-0.008-0.053-0.002-0.008-0.003-0.017-0.005-0.025-0.005-0.024-0.011-0.047-0.018-0.070-0.002-0.006-0.004-0.013-0.007-0.019-0.006-0.017-0.012-0.034-0.019-0.051-0.004-0.009-0.007-0.018-0.011-0.027-0.007-0.015-0.014-0.030-0.021-0.044-0.004-0.008-0.008-0.015-0.012-0.022-0.012-0.021-0.024-0.042-0.038-0.062-0.002-0.003-0.004-0.005-0.005-0.008-0.013-0.018-0.026-0.036-0.040-0.053-0.004-0.005-0.008-0.010-0.013-0.015-0.013-0.015-0.026-0.030-0.040-0.044-0.004-0.004-0.007-0.008-0.011-0.012-0.036-0.035-0.074-0.067-0.116-0.096-0.005-0.004-0.011-0.007-0.016-0.011-0.015-0.010-0.031-0.020-0.047-0.029-0.007-0.004-0.014-0.008-0.021-0.012-0.017-0.009-0.034-0.017-0.051-0.025-0.006-0.003-0.012-0.006-0.017-0.008-0.001-0-0.001-0.001-0.002-0.001s-0.003-0.001-0.005-0.002c-0.033-0.014-0.068-0.024-0.103-0.034-0.008-0.002-0.016-0.004-0.024-0.006-0.036-0.008-0.072-0.015-0.11-0.019-0.005-0.001-0.010-0-0.014-0.001-0.023-0.002-0.046-0.004-0.069-0.004-0.009 0-0.018 0.001-0.027 0.001-0.011 0-0.021 0.001-0.032 0.002-0.034 0.002-0.068 0.006-0.101 0.013-0.002 0-0.005 0.001-0.007 0.001-0.037 0.007-0.073 0.018-0.108 0.030-0.007 0.003-0.015 0.005-0.022 0.008-0.032 0.012-0.063 0.025-0.093 0.041-0.003 0.002-0.007 0.003-0.010 0.005-0.032 0.017-0.063 0.037-0.093 0.059-0.008 0.005-0.015 0.011-0.022 0.017-0.029 0.022-0.056 0.045-0.082 0.071-0.001 0.001-0.002 0.002-0.003 0.003l-4.427 4.428c-0.332 0.333-0.332 0.872 0 1.204l4.177 4.178v5.909c0 0.47 0.381 0.852 0.851 0.852h5.907l4.177 4.178c0.16 0.16 0.376 0.249 0.602 0.249s0.442-0.090 0.602-0.249l4.426-4.428c0-0 0.001-0.001 0.001-0.001 0.026-0.026 0.050-0.055 0.073-0.085 0.005-0.007 0.011-0.014 0.016-0.021 0.022-0.030 0.042-0.061 0.059-0.094 0.001-0.003 0.002-0.005 0.004-0.008 0.016-0.031 0.030-0.063 0.042-0.097 0.003-0.007 0.005-0.014 0.007-0.020 0.012-0.035 0.023-0.072 0.030-0.109 0-0.002 0-0.003 0.001-0.005 0.007-0.034 0.010-0.068 0.013-0.104 0.001-0.010 0.001-0.020 0.002-0.031s0.001-0.018 0.001-0.028c0-0.024-0.001-0.047-0.003-0.070zM2.055 15.967l2.371-2.372v4.744l-2.371-2.372zM15.964 29.88l-2.371-2.372h4.742l-2.371 2.372z"></path>
<path fill="#2d527c" d="M31.679 15.367l-4.177-4.178v-5.909c0-0.47-0.381-0.852-0.851-0.852h-5.907l-4.177-4.178c-0.16-0.16-0.376-0.249-0.602-0.249s-0.442 0.090-0.602 0.249l-4.177 4.178h-5.907c-0.47 0-0.851 0.381-0.851 0.852s0.381 0.852 0.851 0.852h20.522v14.266c0 0.026 0.002 0.052 0.004 0.078 0.001 0.008 0.002 0.016 0.003 0.024 0.002 0.018 0.005 0.036 0.008 0.053 0.002 0.008 0.003 0.017 0.005 0.025 0.005 0.023 0.011 0.047 0.018 0.070 0.002 0.006 0.004 0.013 0.007 0.019 0.006 0.017 0.012 0.034 0.019 0.051 0.004 0.009 0.007 0.018 0.011 0.026 0.007 0.015 0.014 0.030 0.021 0.044 0.004 0.007 0.008 0.015 0.012 0.022 0.012 0.021 0.024 0.042 0.038 0.062 0.002 0.003 0.004 0.005 0.005 0.007 0.013 0.018 0.026 0.036 0.040 0.053 0.004 0.005 0.008 0.010 0.013 0.015 0.013 0.015 0.026 0.030 0.040 0.044 0.004 0.004 0.007 0.008 0.011 0.012 0.036 0.035 0.075 0.067 0.116 0.096 0.005 0.004 0.011 0.007 0.017 0.011 0.015 0.010 0.031 0.020 0.047 0.029 0.007 0.004 0.014 0.008 0.021 0.012 0.017 0.009 0.034 0.017 0.051 0.025 0.006 0.003 0.012 0.006 0.017 0.008 0.001 0 0.001 0.001 0.002 0.001 0.007 0.003 0.014 0.005 0.021 0.007 0.019 0.007 0.038 0.014 0.057 0.020 0.010 0.003 0.020 0.005 0.030 0.008 0.017 0.005 0.034 0.009 0.051 0.013s0.033 0.005 0.049 0.007c0.011 0.002 0.022 0.004 0.033 0.005 0.028 0.003 0.057 0.004 0.085 0.004s0.057-0.002 0.085-0.004c0.012-0.001 0.025-0.004 0.037-0.005 0.015-0.002 0.030-0.004 0.045-0.007 0.017-0.003 0.033-0.008 0.050-0.012 0.010-0.003 0.020-0.005 0.030-0.008 0.017-0.005 0.034-0.011 0.050-0.018 0.009-0.003 0.019-0.006 0.028-0.010 0.015-0.006 0.030-0.014 0.045-0.021 0.010-0.005 0.021-0.009 0.031-0.015 0.013-0.007 0.025-0.015 0.038-0.023 0.011-0.007 0.023-0.013 0.034-0.021s0.021-0.016 0.032-0.023c0.012-0.009 0.024-0.017 0.035-0.026 0.010-0.008 0.020-0.018 0.029-0.027s0.022-0.019 0.032-0.029l4.426-4.428c0.333-0.332 0.333-0.872 0-1.204zM13.593 4.428l2.371-2.372 2.371 2.372-4.742 0zM27.502 18.341v-4.744l2.371 2.372-2.371 2.372z"></path>
<path fill="#2d527c" d="M15.963 12.462c-1.549 0-2.809-1.261-2.809-2.81 0-0.47 0.381-0.852 0.851-0.852s0.851 0.381 0.851 0.852c0 0.61 0.496 1.107 1.107 1.107s1.107-0.497 1.107-1.107-0.497-1.107-1.107-1.107c-0.47 0-0.851-0.381-0.851-0.852s0.381-0.852 0.851-0.852c1.549 0 2.809 1.261 2.809 2.81s-1.26 2.81-2.809 2.81z"></path>
<path fill="#2d527c" d="M22.28 16.123h-12.63c-0.47 0-0.851-0.381-0.851-0.852s0.381-0.852 0.851-0.852h12.63c0.47 0 0.851 0.381 0.851 0.852s-0.381 0.852-0.851 0.852z"></path>
<path fill="#2d527c" d="M22.28 19.997h-12.63c-0.47 0-0.851-0.381-0.851-0.852s0.381-0.852 0.851-0.852h12.63c0.47 0 0.851 0.381 0.851 0.852s-0.381 0.852-0.851 0.852z"></path>
<path fill="#2d527c" d="M16.317 23.871h-6.667c-0.47 0-0.851-0.381-0.851-0.852s0.381-0.852 0.851-0.852h6.667c0.47 0 0.851 0.381 0.851 0.852s-0.381 0.852-0.851 0.852z"></path>
</svg>
