<!-- Generated by IcoMoon.io -->
<svg version="1.1" xmlns="http://www.w3.org/2000/svg" width="33" height="32" viewBox="0 0 33 32">
<title>settings</title>
<path fill="#2d527c" d="M11.267 31.83h-3.543c-0.461 0-0.854-0.336-0.927-0.793l-0.226-1.419c-0.787-0.305-1.529-0.736-2.188-1.27l-1.338 0.514c-0.431 0.165-0.917-0.008-1.148-0.409l-1.772-3.081c-0.231-0.401-0.137-0.91 0.221-1.202l1.111-0.906c-0.065-0.419-0.098-0.844-0.098-1.268s0.033-0.85 0.098-1.269l-1.111-0.906c-0.358-0.292-0.451-0.802-0.221-1.202l1.772-3.081c0.231-0.401 0.717-0.574 1.148-0.409l1.338 0.514c0.659-0.534 1.4-0.964 2.187-1.269l0.226-1.419c0.073-0.457 0.466-0.793 0.927-0.793h3.543c0.461 0 0.854 0.336 0.927 0.793l0.315 1.977c0.082 0.514-0.267 0.997-0.778 1.079s-0.993-0.268-1.075-0.781l-0.189-1.183h-1.943l-0.188 1.183c-0.057 0.356-0.311 0.649-0.655 0.753-0.913 0.277-1.765 0.772-2.465 1.43-0.262 0.247-0.641 0.322-0.977 0.193l-1.116-0.428-0.971 1.689 0.926 0.755c0.278 0.227 0.403 0.593 0.322 0.944-0.108 0.468-0.163 0.95-0.163 1.431s0.055 0.963 0.163 1.431c0.081 0.351-0.044 0.717-0.322 0.944l-0.926 0.755 0.972 1.689 1.116-0.428c0.335-0.129 0.715-0.054 0.977 0.193 0.699 0.659 1.551 1.153 2.464 1.43 0.344 0.104 0.598 0.397 0.655 0.753l0.188 1.183h1.943l0.189-1.183c0.057-0.356 0.311-0.648 0.655-0.753 0.913-0.277 1.765-0.772 2.464-1.43 0.262-0.247 0.642-0.322 0.977-0.193l1.117 0.428 0.971-1.689-0.926-0.755c-0.279-0.227-0.404-0.594-0.322-0.945 0.108-0.465 0.163-0.946 0.163-1.43s-0.055-0.965-0.163-1.43c-0.118-0.507 0.196-1.013 0.701-1.131s1.009 0.197 1.127 0.704c0.141 0.606 0.212 1.231 0.212 1.858 0 0.426-0.033 0.85-0.098 1.268l1.111 0.906c0.358 0.292 0.451 0.801 0.221 1.202l-1.771 3.081c-0.231 0.401-0.717 0.574-1.148 0.409l-1.339-0.513c-0.659 0.534-1.4 0.964-2.187 1.27l-0.226 1.419c-0.073 0.457-0.466 0.793-0.927 0.793z"></path>
<path fill="#cee8fa" d="M9.495 24.774c1.529 0 2.769-1.245 2.769-2.78s-1.24-2.78-2.769-2.78c-1.529 0-2.769 1.245-2.769 2.78s1.24 2.78 2.769 2.78z"></path>
<path fill="#2d527c" d="M9.495 25.716c-2.044 0-3.708-1.67-3.708-3.722s1.663-3.722 3.708-3.722c2.044 0 3.707 1.67 3.707 3.722s-1.663 3.722-3.707 3.722zM9.495 20.156c-1.009 0-1.831 0.824-1.831 1.838s0.821 1.838 1.831 1.838c1.009 0 1.831-0.824 1.831-1.838s-0.821-1.838-1.831-1.838z"></path>
<path fill="#cee8fa" d="M30.554 9.835c0-0.566-0.065-1.116-0.188-1.644l1.547-1.262-1.771-3.081-1.864 0.715c-0.796-0.75-1.763-1.319-2.834-1.645l-0.315-1.977h-3.543l-0.315 1.977c-1.072 0.325-2.038 0.895-2.835 1.645l-1.864-0.715-1.772 3.081 1.547 1.262c-0.122 0.528-0.187 1.079-0.187 1.644s0.065 1.116 0.187 1.644l-1.547 1.262 1.772 3.080 1.864-0.715c0.796 0.75 1.763 1.32 2.835 1.645l0.315 1.976h3.543l0.315-1.976c1.072-0.326 2.038-0.895 2.834-1.645l1.864 0.715 1.771-3.081-1.547-1.262c0.123-0.528 0.188-1.079 0.188-1.644zM23.357 12.615c-1.529 0-2.769-1.245-2.769-2.78s1.24-2.78 2.769-2.78c1.529 0 2.769 1.245 2.769 2.78s-1.24 2.78-2.769 2.78z"></path>
<path fill="#2d527c" d="M25.129 19.67h-3.543c-0.461 0-0.854-0.336-0.927-0.793l-0.226-1.419c-0.787-0.305-1.529-0.736-2.188-1.27l-1.338 0.514c-0.431 0.165-0.917-0.008-1.148-0.409l-1.772-3.081c-0.231-0.401-0.137-0.91 0.221-1.202l1.111-0.906c-0.065-0.419-0.098-0.844-0.098-1.268s0.033-0.85 0.098-1.269l-1.111-0.906c-0.358-0.292-0.451-0.801-0.221-1.202l1.772-3.081c0.231-0.401 0.717-0.574 1.148-0.409l1.338 0.514c0.659-0.534 1.4-0.964 2.187-1.269l0.226-1.419c0.073-0.457 0.466-0.793 0.927-0.793h3.543c0.461 0 0.854 0.336 0.927 0.793l0.226 1.419c0.787 0.305 1.529 0.736 2.187 1.269l1.339-0.514c0.431-0.165 0.917 0.008 1.148 0.409l1.771 3.081c0.23 0.401 0.137 0.91-0.221 1.202l-1.111 0.906c0.065 0.418 0.098 0.843 0.098 1.269s-0.033 0.85-0.098 1.269l1.111 0.906c0.358 0.292 0.452 0.801 0.221 1.202l-1.771 3.081c-0.231 0.401-0.717 0.574-1.148 0.409l-1.338-0.514c-0.659 0.534-1.4 0.964-2.187 1.27l-0.226 1.419c-0.073 0.457-0.466 0.793-0.927 0.793zM22.386 17.785h1.943l0.189-1.183c0.057-0.356 0.311-0.648 0.655-0.753 0.913-0.277 1.765-0.772 2.464-1.431 0.262-0.247 0.642-0.322 0.977-0.193l1.116 0.428 0.971-1.689-0.926-0.755c-0.279-0.227-0.404-0.594-0.322-0.945 0.108-0.465 0.163-0.946 0.163-1.43s-0.055-0.965-0.163-1.43c-0.082-0.351 0.044-0.718 0.322-0.945l0.926-0.755-0.971-1.689-1.116 0.428c-0.336 0.129-0.715 0.054-0.977-0.193-0.7-0.658-1.552-1.153-2.464-1.43-0.344-0.104-0.598-0.397-0.655-0.753l-0.189-1.183h-1.943l-0.188 1.183c-0.057 0.356-0.311 0.649-0.655 0.753-0.913 0.277-1.765 0.772-2.465 1.43-0.262 0.247-0.642 0.321-0.977 0.193l-1.116-0.428-0.971 1.689 0.926 0.755c0.278 0.227 0.403 0.593 0.322 0.944-0.108 0.468-0.163 0.95-0.163 1.431s0.055 0.963 0.163 1.431c0.081 0.351-0.044 0.717-0.322 0.944l-0.926 0.755 0.971 1.689 1.116-0.428c0.336-0.129 0.715-0.054 0.977 0.193 0.699 0.659 1.551 1.153 2.464 1.43 0.344 0.104 0.598 0.397 0.655 0.753l0.189 1.183zM23.357 13.557c-2.044 0-3.707-1.67-3.707-3.722s1.663-3.722 3.707-3.722c2.044 0 3.708 1.67 3.708 3.722s-1.663 3.722-3.708 3.722zM23.357 7.997c-1.009 0-1.831 0.824-1.831 1.838s0.821 1.838 1.831 1.838c1.009 0 1.831-0.824 1.831-1.838s-0.821-1.838-1.831-1.838z"></path>
</svg>
