<!-- Generated by IcoMoon.io -->
<svg version="1.1" xmlns="http://www.w3.org/2000/svg" width="26" height="32" viewBox="0 0 26 32">
<title>skills</title>
<path fill="#cee8fa" d="M8.393 10.176l1.279 2.040 2.335 0.586-1.544 1.847 0.164 2.402-2.233-0.898-2.233 0.898 0.164-2.402-1.544-1.847 2.335-0.586 1.279-2.040z"></path>
<path fill="#2d527c" d="M6.159 17.99c-0.195 0-0.389-0.061-0.552-0.179-0.262-0.19-0.407-0.501-0.385-0.824l0.138-2.025-1.302-1.557c-0.207-0.248-0.273-0.585-0.173-0.893s0.351-0.542 0.665-0.621l1.968-0.494 1.078-1.72c0.172-0.274 0.472-0.44 0.796-0.44s0.624 0.166 0.796 0.44l1.078 1.72 1.968 0.494c0.314 0.079 0.565 0.313 0.665 0.621s0.035 0.645-0.173 0.893l-1.302 1.557 0.138 2.025c0.022 0.323-0.123 0.634-0.385 0.824s-0.602 0.232-0.902 0.112l-1.883-0.757-1.883 0.757c-0.113 0.045-0.232 0.068-0.35 0.068zM6.46 13.348l0.583 0.698c0.155 0.186 0.233 0.425 0.217 0.667l-0.062 0.908 0.844-0.339c0.225-0.090 0.476-0.090 0.701 0l0.844 0.339-0.062-0.907c-0.017-0.242 0.061-0.481 0.217-0.667l0.583-0.698-0.882-0.221c-0.235-0.059-0.438-0.207-0.567-0.412l-0.483-0.771-0.483 0.771c-0.129 0.205-0.332 0.353-0.567 0.412l-0.882 0.221z"></path>
<path fill="#2d527c" d="M20.577 12.91h-5.353c-0.519 0-0.939-0.421-0.939-0.939s0.421-0.939 0.939-0.939h5.353c0.518 0 0.939 0.421 0.939 0.939s-0.42 0.939-0.939 0.939z"></path>
<path fill="#2d527c" d="M18.698 16.195h-3.473c-0.519 0-0.939-0.421-0.939-0.939s0.421-0.939 0.939-0.939h3.473c0.519 0 0.939 0.421 0.939 0.939s-0.421 0.939-0.939 0.939z"></path>
<path fill="#cee8fa" d="M8.393 20.328l1.279 2.040 2.335 0.586-1.544 1.847 0.164 2.402-2.233-0.899-2.233 0.899 0.164-2.402-1.544-1.847 2.335-0.586 1.279-2.040z"></path>
<path fill="#2d527c" d="M10.625 28.142c-0.118 0-0.237-0.022-0.35-0.068l-1.883-0.757-1.883 0.757c-0.3 0.121-0.641 0.078-0.902-0.112s-0.407-0.501-0.385-0.824l0.138-2.025-1.302-1.557c-0.207-0.248-0.273-0.585-0.173-0.893s0.351-0.542 0.665-0.621l1.968-0.494 1.078-1.72c0.172-0.274 0.472-0.44 0.796-0.44s0.624 0.166 0.796 0.44l1.078 1.72 1.968 0.494c0.314 0.079 0.565 0.313 0.665 0.621s0.035 0.645-0.173 0.893l-1.302 1.557 0.138 2.025c0.022 0.323-0.123 0.634-0.385 0.824-0.163 0.118-0.357 0.179-0.552 0.179zM6.46 23.5l0.583 0.698c0.155 0.186 0.233 0.425 0.217 0.667l-0.062 0.907 0.844-0.339c0.225-0.090 0.476-0.090 0.701 0l0.844 0.339-0.062-0.907c-0.017-0.242 0.061-0.481 0.217-0.667l0.583-0.698-0.882-0.221c-0.235-0.059-0.438-0.207-0.567-0.412l-0.483-0.771-0.483 0.771c-0.129 0.205-0.332 0.353-0.567 0.412l-0.882 0.221z"></path>
<path fill="#2d527c" d="M20.577 23.063h-5.353c-0.519 0-0.939-0.421-0.939-0.939s0.421-0.939 0.939-0.939h5.353c0.518 0 0.939 0.421 0.939 0.939s-0.42 0.939-0.939 0.939z"></path>
<path fill="#2d527c" d="M18.698 26.347h-3.473c-0.519 0-0.939-0.421-0.939-0.939s0.421-0.939 0.939-0.939h3.473c0.519 0 0.939 0.421 0.939 0.939s-0.421 0.939-0.939 0.939z"></path>
<path fill="#cee8fa" d="M7.513 3.574h-6.574v3.003h6.574v-3.003z"></path>
<path fill="#cee8fa" d="M24.416 3.574h-6.574v3.003h6.574v-3.003z"></path>
<path fill="#2d527c" d="M16.904 6.575c0 0.519 0.421 0.939 0.939 0.939h6.574c0.519 0 0.939-0.421 0.939-0.939v-3.003c0-0.519-0.421-0.939-0.939-0.939h-5.635v-1.694c-0-0.519-0.421-0.939-0.939-0.939h-10.33c-0.518 0-0.939 0.421-0.939 0.939v1.694h-5.635c-0.519 0-0.939 0.421-0.939 0.939v27.426c0 0.519 0.42 0.939 0.939 0.939h23.478c0.519 0 0.939-0.421 0.939-0.939v-19.027c0-0.519-0.421-0.939-0.939-0.939s-0.939 0.421-0.939 0.939v18.087h-21.599v-22.544h12.243c0.519 0 0.939-0.421 0.939-0.939s-0.421-0.939-0.939-0.939h-5.669v-3.757h8.452v4.697h0zM1.878 4.512h4.696v1.124h-4.696v-1.124zM23.478 5.636h-4.696v-1.124h4.696v1.124z"></path>
</svg>
