<!-- Generated by IcoMoon.io -->
<svg version="1.1" xmlns="http://www.w3.org/2000/svg" width="32" height="32" viewBox="0 0 32 32">
<title>statistics</title>
<path fill="#cee8fa" d="M17.952 17.271h-3.454v-4.158c0-0.958 0.773-1.734 1.727-1.734s1.727 0.776 1.727 1.734v4.158z"></path>
<path fill="#2d527c" d="M17.951 18.197h-3.454c-0.51 0-0.923-0.415-0.923-0.927v-4.157c0-1.467 1.189-2.661 2.65-2.661s2.65 1.194 2.65 2.661v4.157c0 0.512-0.413 0.927-0.923 0.927zM15.42 16.343h1.608v-3.231c0-0.445-0.361-0.807-0.804-0.807s-0.804 0.362-0.804 0.807v3.231h-0z"></path>
<path fill="#cee8fa" d="M21.407 17.27h-3.454v-6.239c0-0.958 0.773-1.734 1.727-1.734s1.727 0.776 1.727 1.734v6.239z"></path>
<path fill="#2d527c" d="M21.406 18.196h-3.454c-0.51 0-0.923-0.415-0.923-0.927v-6.239c0-1.467 1.189-2.661 2.65-2.661s2.65 1.194 2.65 2.661v6.239c0 0.512-0.413 0.927-0.923 0.927zM18.875 16.342h1.608v-5.312c0-0.445-0.361-0.807-0.804-0.807s-0.804 0.362-0.804 0.807v5.312z"></path>
<path fill="#2d527c" d="M24.861 18.197h-3.454c-0.51 0-0.923-0.415-0.923-0.927v-8.32c0-1.467 1.189-2.661 2.65-2.661s2.65 1.194 2.65 2.661v4.173c0 0.512-0.413 0.927-0.923 0.927s-0.923-0.415-0.923-0.927v-4.173c0-0.445-0.361-0.807-0.804-0.807s-0.804 0.362-0.804 0.807v7.393h2.531c0.51 0 0.923 0.415 0.923 0.927s-0.413 0.927-0.923 0.927z"></path>
<path fill="#2d527c" d="M19.678 24.486c-6.724 0-12.194-5.492-12.194-12.243s5.47-12.243 12.194-12.243c6.724 0 12.195 5.492 12.195 12.243 0 1.822-0.39 3.576-1.158 5.213-0.217 0.463-0.767 0.662-1.229 0.443s-0.659-0.77-0.442-1.234c0.651-1.388 0.982-2.876 0.982-4.423 0-5.729-4.642-10.389-10.348-10.389s-10.348 4.661-10.348 10.389c0 5.729 4.642 10.389 10.348 10.389 2.141 0 4.196-0.651 5.941-1.882 0.417-0.294 0.993-0.193 1.286 0.226s0.192 0.997-0.225 1.291c-2.058 1.451-4.479 2.219-7.003 2.219z"></path>
<path fill="#2d527c" d="M8.877 24.014c-0.236 0-0.473-0.090-0.653-0.271-0.361-0.362-0.361-0.949 0-1.311l2.791-2.802c0.361-0.362 0.945-0.362 1.306 0s0.361 0.949 0 1.311l-2.791 2.802c-0.18 0.181-0.417 0.271-0.653 0.271z"></path>
<path fill="#cee8fa" d="M4.314 31.072l-3.39-3.403 4.988-5.008c0.936-0.94 2.454-0.94 3.39 0s0.936 2.463 0 3.403l-4.988 5.008z"></path>
<path fill="#2d527c" d="M4.313 32c-0.236 0-0.473-0.091-0.653-0.271l-3.39-3.403c-0.36-0.362-0.36-0.949 0-1.311l4.988-5.008c0.627-0.63 1.461-0.976 2.348-0.976s1.721 0.347 2.348 0.976c1.294 1.3 1.294 3.414 0 4.714l-4.988 5.008c-0.18 0.181-0.416 0.271-0.653 0.271zM2.229 27.67l2.084 2.093 4.335-4.353c0.575-0.577 0.575-1.516 0-2.093-0.278-0.279-0.648-0.433-1.042-0.433s-0.764 0.154-1.042 0.433l-4.335 4.353z"></path>
</svg>
